<?xml version="1.0"?>
<svg width="256" height="256" xmlns="http://www.w3.org/2000/svg" xmlns:svg="http://www.w3.org/2000/svg" version="1.1" xml:space="preserve">
 <g class="layer">
  <title>Layer 1</title>
  <g fill="none" fill-rule="nonzero" id="svg_1" stroke-miterlimit="10" stroke-width="0" transform="translate(1.4065934065934016 1.4065934065934016) scale(2.81 2.81)">
   <path d="m83.63,82.55l-77.26,0c-3.51,0 -6.37,-2.85 -6.37,-6.37l0,-10.65c0,-1.11 0.9,-2 2,-2s2,0.89 2,2l0,10.65c0,1.31 1.06,2.37 2.37,2.37l77.26,0c1.31,0 2.37,-1.06 2.37,-2.37l0,-48.03c0,-1.31 -1.06,-2.37 -2.37,-2.37l-34.55,0c-3.15,0 -6.13,-1.19 -8.41,-3.36l-9.14,-8.71c-1.53,-1.46 -3.53,-2.26 -5.64,-2.26l-19.52,0c-1.31,0 -2.37,1.06 -2.37,2.37l0,38.31c0,1.1 -0.9,2 -2,2s-2,-0.9 -2,-2l0,-38.31c0,-3.52 2.86,-6.37 6.37,-6.37l19.52,0c3.14,0 6.13,1.19 8.4,3.36l9.14,8.71c1.53,1.46 3.53,2.26 5.65,2.26l34.55,0c3.51,0 6.37,2.86 6.37,6.37l0,48.03c0,3.51 -2.86,6.37 -6.37,6.37z" fill="rgb(0,0,0)" fill-rule="nonzero" id="svg_2" stroke-miterlimit="10" transform=" matrix(1 0 0 1 0 0) "/>
   <path d="m42.15,59.67c-3.11,0 -6.04,-1.21 -8.24,-3.41c-4.54,-4.54 -4.54,-11.93 0,-16.48c2.2,-2.2 5.13,-3.41 8.24,-3.41s6.03,1.21 8.23,3.41l0,0l0,0c4.54,4.55 4.54,11.94 0,16.48c-2.2,2.2 -5.12,3.41 -8.23,3.41zm0,-19.3c-2.05,0 -3.97,0.8 -5.41,2.24c-2.98,2.99 -2.98,7.84 0,10.82c1.44,1.44 3.36,2.24 5.41,2.24s3.96,-0.8 5.4,-2.24c2.99,-2.98 2.99,-7.83 0,-10.82l0,0c-1.44,-1.44 -3.36,-2.24 -5.4,-2.24z" fill="rgb(0,0,0)" fill-rule="nonzero" id="svg_3" stroke-miterlimit="10" transform=" matrix(1 0 0 1 0 0) "/>
   <path d="m57.5,65.37c-0.51,0 -1.02,-0.19 -1.41,-0.58l-8.54,-8.53c-0.78,-0.78 -0.78,-2.05 0,-2.83s2.05,-0.78 2.83,0l8.53,8.53c0.79,0.78 0.79,2.05 0,2.83c-0.39,0.39 -0.9,0.58 -1.41,0.58z" fill="rgb(0,0,0)" fill-rule="nonzero" id="svg_4" stroke-miterlimit="10" transform=" matrix(1 0 0 1 0 0) "/>
  </g>
  <path d="m75.09,48.06l-43.99,35.56l43.44,12.22l-40.15,38.18l-16.21,-6.45l11.5,36.8l45.7,-16.05l-19.29,-6.71l52.39,-54.83l-47.89,-9.94l46.25,-37.05l-26.38,-5.56l28.73,-23.55l-10.55,-0.34l-44.59,32.31l21.05,5.43z" fill="#ffffff" id="svg_7" stroke="#000000" stroke-width="5"/>
 </g>
</svg>